<?xml version="1.0" encoding="UTF-8"?>
<!DOCTYPE svg PUBLIC "-//W3C//DTD SVG 1.1//EN" "http://www.w3.org/Graphics/SVG/1.1/DTD/svg11.dtd">
<!-- Creator: CorelDRAW X6 -->
<svg xmlns="http://www.w3.org/2000/svg" xml:space="preserve" width="1500px" height="389px" version="1.1" shape-rendering="geometricPrecision" text-rendering="geometricPrecision" image-rendering="optimizeQuality" fill-rule="evenodd" clip-rule="evenodd"
viewBox="0 0 151454 39242"
 xmlns:xlink="http://www.w3.org/1999/xlink">
 <g id="Capa_x0020_1">
  <metadata id="CorelCorpID_0Corel-Layer"/>
  <path fill="#EDA400" d="M41044 18454c1452,1069 2642,2454 3479,4051 1121,2163 1519,4629 1135,7035 -384,2406 -1531,4625 -3270,6331 -1070,1088 -2349,1948 -3761,2527 -1412,579 -2927,866 -4452,842l-34175 0 0 -39195 31883 -44c1515,-22 3018,267 4416,851 1398,583 2661,1448 3710,2541 1086,1058 1945,2326 2524,3726 579,1401 866,2905 845,4421 9,2500 -812,4931 -2334,6914l1 0zm-32720 -11494l0 9116 23561 0c601,10 1197,-102 1754,-330 556,-227 1061,-564 1484,-992 434,-414 777,-914 1008,-1467 231,-553 345,-1149 335,-1748 -2,-1214 -484,-2378 -1343,-3237 -859,-859 -2023,-1342 -3237,-1343l-23561 0zm25851 25366c616,10 1227,-104 1799,-335 571,-231 1090,-573 1526,-1008 439,-417 787,-919 1026,-1476 239,-556 361,-1155 361,-1760 0,-606 -123,-1204 -361,-1761 -238,-557 -587,-1059 -1026,-1476 -436,-435 -955,-777 -1526,-1008 -571,-231 -1183,-345 -1799,-336l-25851 0 0 9160 25851 0z"/>
  <path fill="#EDA400" d="M68792 15856c8015,0 13630,360 16844,1079 3215,720 5557,2298 7024,4734 827,1527 1246,3241 1215,4978 -31,1736 -510,3435 -1391,4931 -1615,2643 -4008,4581 -7178,5813 -3171,1233 -7677,1850 -13520,1850 -5373,0 -9740,-514 -13102,-1541 -3362,-1027 -6071,-2627 -8125,-4800 -1424,-1503 -2407,-3370 -2840,-5395 -70,-444 -92,-895 -66,-1344l8279 0c29,30 221,265 573,705 223,295 466,574 727,837 132,118 441,367 925,749 408,338 869,606 1365,793 425,148 1042,361 1850,639 842,287 1714,479 2599,572 924,104 2055,206 3391,309 1336,103 2811,155 4426,154 1971,14 3942,-88 5901,-308 1349,-135 2683,-393 3986,-771 829,-248 1615,-619 2334,-1101 481,-301 888,-708 1189,-1189 185,-346 283,-731 286,-1123 2,-286 -54,-571 -164,-835 -109,-265 -271,-505 -475,-706 -426,-440 -1138,-785 -2136,-1035 -999,-249 -1946,-455 -2841,-617 -1283,-196 -2578,-306 -3876,-330 -1688,-59 -3031,-95 -4029,-110 -998,-15 -2481,-22 -4448,-22 -1967,0 -3479,-15 -4536,-44 -1057,-29 -2481,-124 -4272,-286 -1440,-88 -2862,-370 -4228,-836 -1117,-439 -2199,-962 -3237,-1564 -1090,-604 -1978,-1515 -2555,-2620 -600,-1202 -952,-2512 -1035,-3853 -59,-645 -59,-1293 0,-1938 98,-812 289,-1611 573,-2378 320,-935 789,-1812 1387,-2598 770,-949 1675,-1780 2686,-2466 1303,-910 2726,-1636 4228,-2158 2033,-683 4128,-1170 6254,-1454 2822,-401 5671,-592 8522,-573 5225,0 9313,499 12265,1498 2866,944 5448,2595 7508,4800 1762,1850 2687,3890 2775,6121l-8280 0c-330,-516 -714,-996 -1145,-1432 -597,-495 -1255,-910 -1960,-1233 -955,-484 -2364,-843 -4228,-1079 -2303,-258 -4619,-376 -6936,-352 -2368,-16 -4735,94 -7090,331 -1630,139 -3240,457 -4800,947 -945,291 -1832,745 -2620,1343 -255,186 -464,427 -613,706 -149,278 -233,587 -246,902 0,2202 3846,3303 11538,3303l1321 0z"/>
  <path fill="#EDA400" d="M132093 21066c-1254,845 -2737,1285 -4248,1264l-22416 0 0 -15369 22416 0c1511,-22 2992,423 4243,1272l8903 0c-722,-1442 -1674,-2757 -2818,-3893 -1337,-1383 -2943,-2478 -4719,-3216 -1776,-738 -3685,-1105 -5609,-1077l-30737 -44 0 39240 8323 0 0 -9952 22416 0c1924,28 3832,-339 5609,-1077 1776,-739 3382,-1833 4719,-3217 1154,-1143 2110,-2470 2828,-3928l-8908 -1z"/>
  <path fill="#EDA400" d="M123771 16450c476,13 948,-83 1382,-280 345,-150 623,-421 780,-763l1299 0c-48,330 -172,644 -362,919 -190,274 -441,501 -732,663 -732,371 -1547,547 -2366,511 -1101,0 -1962,-215 -2583,-646 -622,-431 -932,-1097 -933,-2000 0,-907 311,-1577 933,-2010 622,-433 1483,-649 2583,-649 826,-36 1647,142 2383,518 294,165 545,396 733,676 188,279 309,599 351,933l-1305 0c-145,-353 -419,-637 -767,-794 -436,-205 -914,-304 -1396,-290 -572,-33 -1140,112 -1627,415 -191,135 -345,315 -447,526 -102,210 -149,443 -137,676 -12,231 35,462 137,670 102,208 256,387 446,518 488,298 1056,441 1627,408z"/>
  <path fill="#EDA400" d="M131812 12195c357,-3 712,42 1057,131 319,84 622,219 898,401 276,185 499,438 646,736 165,336 246,707 238,1081l0 2949 -1298 0 0 -2949c-14,-217 -84,-426 -203,-608 -119,-182 -282,-331 -475,-431 -461,-230 -979,-322 -1492,-266 -355,24 -703,113 -1026,262 -319,141 -604,350 -836,611 -209,220 -328,509 -335,812l0 2569 -1305 0 0 -7038 1305 0 0 2922c125,-244 481,-502 1071,-774 548,-262 1147,-401 1754,-407z"/>
  <path fill="#EDA400" d="M140467 12195l1305 0 0 5312 -1305 0 0 -815c-250,277 -566,488 -919,611 -464,146 -950,212 -1437,197 -295,0 -590,-34 -877,-100 -291,-67 -572,-173 -836,-314 -260,-137 -499,-312 -708,-518 -213,-214 -380,-469 -491,-750 -244,-624 -244,-1317 0,-1941 111,-281 278,-535 491,-750 209,-206 448,-381 708,-518 263,-141 545,-247 836,-314 288,-66 582,-100 877,-100 509,-5 1016,74 1499,235 346,79 651,283 856,573l0 -808zm-1927 4151c492,26 979,-115 1381,-401 160,-135 288,-303 377,-492 88,-189 134,-396 134,-605 0,-209 -45,-416 -132,-605 -88,-190 -216,-358 -375,-493 -403,-287 -891,-428 -1385,-401 -550,-16 -1093,127 -1565,411 -197,106 -361,263 -476,454 -115,191 -176,410 -177,634 -1,296 111,582 314,798 223,241 503,422 815,525 350,120 718,180 1088,176z"/>
  <path fill="#EDA400" d="M143760 11760l-1305 0 0 -1305 1305 0 0 1305zm0 5733l-1305 0 0 -5298 1305 0 0 5298z"/>
  <path fill="#EDA400" d="M148546 12195c972,0 1699,198 2183,594 483,396 725,1043 725,1941l0 2777 -1305 0 0 -2777c15,-213 -23,-426 -110,-621 -87,-195 -220,-366 -388,-498 -331,-249 -882,-373 -1651,-373 -483,-8 -960,96 -1396,304 -368,163 -670,445 -856,801l0 3163 -1305 0 0 -5312 1305 0 0 1098c309,-331 686,-592 1105,-763 534,-232 1111,-346 1692,-335z"/>
 </g>
</svg>
